<?xml version="1.0" encoding="UTF-8"?>
<svg width="36px" height="14px" viewBox="0 0 36 14" version="1.1" xmlns="http://www.w3.org/2000/svg" xmlns:xlink="http://www.w3.org/1999/xlink">
    <!-- Generator: Sketch 63.1 (92452) - https://sketch.com -->
    
    <desc>Created with Sketch.</desc>
    <g id="页面-1" stroke="none" stroke-width="1" fill="none" fill-rule="evenodd" opacity="0.5">
        <g id="5dota_战队详情" transform="translate(-862.000000, -3136.000000)" fill="#FF0000">
            <g id="编组-37" transform="translate(360.000000, 3027.000000)">
                <g id="编组-16" transform="translate(128.000000, 92.000000)">
                    <g id="编组-12" transform="translate(45.000000, 17.000000)">
                        <g id="禁用备份-5" transform="translate(329.000000, 0.000000)">
                            <g id="编组">
                                <path d="M36,0 L36,6.58823529 C31.4779023,6.34170613 26.4133187,6.75401106 20.8062492,7.82515008 C23.7904116,9.79476998 26,11.539842 26,12 C26,12.4676177 22.3878304,10.6552684 18.1597033,8.37369856 L18.7826087,8.23529412 C12.8208,9.51768001 7.6034087,11.4392486 3.13043478,14 L5.47826087,10.7058824 L0,10.7058824 C5.44969121,8.89023192 10.0538192,7.31757244 13.812384,5.98790389 C9.18058124,3.41428567 5,1 5,1 C5,1 10.0204713,2.23544335 15.1111111,4.38461538 C15.523669,4.61142001 15.9370617,4.84400144 16.3487293,5.08046478 C18.2002608,4.41136611 19.7938733,3.81580729 21.1304348,3.29411765 C25.7934783,1.87581699 30.75,0.777777778 36,0 Z" id="合并形状"></path>
                            </g>
                        </g>
                    </g>
                </g>
            </g>
        </g>
    </g>
</svg>